<?xml version="1.0" encoding="iso-8859-1"?>
<!-- Uploaded to: SVG Repo, www.svgrepo.com, Generator: SVG Repo Mixer Tools -->
<svg version="1.1" id="Layer_1" xmlns="http://www.w3.org/2000/svg" xmlns:xlink="http://www.w3.org/1999/xlink" 
	 viewBox="0 0 512 512" xml:space="preserve">
<rect x="404.645" y="154.151" style="fill:#C1272D;" width="99.097" height="209.204"/>
<rect x="305.548" y="154.151" style="fill:#ED1C24;" width="99.097" height="209.204"/>
<rect x="206.452" y="154.151" style="fill:#F15A24;" width="99.097" height="209.204"/>
<rect x="107.355" y="154.151" style="fill:#F7931E;" width="99.097" height="209.204"/>
<rect x="8.258" y="154.151" style="fill:#FBB03B;" width="99.097" height="209.204"/>
<rect x="8.258" y="291.785" style="fill:#E4A035;" width="99.097" height="71.57"/>
<rect x="107.355" y="291.785" style="fill:#E2881D;" width="99.097" height="71.57"/>
<rect x="206.452" y="291.785" style="fill:#D95222;" width="99.097" height="71.57"/>
<rect x="305.548" y="291.785" style="fill:#D11B22;" width="99.097" height="71.57"/>
<rect x="404.645" y="291.785" style="fill:#A92025;" width="99.097" height="71.57"/>
<g>
	<polygon style="fill:#7E8488;" points="294.538,440.43 294.538,484.473 228.473,484.473 228.473,440.43 261.505,401.892 	"/>
	<polygon style="fill:#7E8488;" points="481.72,27.527 481.72,71.57 448.688,110.108 415.656,71.57 415.656,27.527 	"/>
	<polygon style="fill:#7E8488;" points="85.333,27.527 85.333,71.57 52.301,110.108 19.269,71.57 19.269,27.527 	"/>
</g>
<g>
	<rect x="19.269" y="27.527" style="fill:#61676A;" width="66.065" height="44.043"/>
	<rect x="415.656" y="27.527" style="fill:#61676A;" width="66.065" height="44.043"/>
	<rect x="228.473" y="440.43" style="fill:#61676A;" width="66.065" height="44.043"/>
</g>
<path d="M0,145.892v225.72h512v-225.72H0z M99.097,355.097H16.516V162.409h82.581V355.097z M198.194,355.097h-82.581V162.409h82.581
	V355.097z M214.71,355.097V162.409h82.581v192.688H214.71z M313.806,355.097V162.409h82.581v192.688H313.806z M495.484,355.097
	h-82.581V162.409h82.581V355.097z"/>
<path d="M93.591,74.624V19.269H11.011v55.355l41.29,48.172L93.591,74.624z M27.527,35.785h49.548v32.731L52.301,97.419
	L27.527,68.516V35.785z"/>
<path d="M220.215,437.376v55.355h82.581v-55.355l-41.29-48.172L220.215,437.376z M286.28,476.215h-49.548v-32.731l24.774-28.903
	l24.774,28.903V476.215z"/>
<path d="M489.979,74.624V19.269h-82.581v55.355l41.29,48.172L489.979,74.624z M423.914,35.785h49.548v32.731l-24.774,28.903
	l-24.774-28.903V35.785z"/>
<g>
	<polygon style="fill:#FFFFFF;" points="49.548,220.215 33.032,220.215 33.032,178.925 68.817,178.925 68.817,195.441 
		49.548,195.441 	"/>
	<polygon style="fill:#FFFFFF;" points="148.645,220.215 132.129,220.215 132.129,178.925 167.914,178.925 167.914,195.441 
		148.645,195.441 	"/>
	<polygon style="fill:#FFFFFF;" points="247.742,220.215 231.226,220.215 231.226,178.925 267.011,178.925 267.011,195.441 
		247.742,195.441 	"/>
	<polygon style="fill:#FFFFFF;" points="346.839,220.215 330.323,220.215 330.323,178.925 366.108,178.925 366.108,195.441 
		346.839,195.441 	"/>
	<polygon style="fill:#FFFFFF;" points="445.935,220.215 429.419,220.215 429.419,178.925 465.204,178.925 465.204,195.441 
		445.935,195.441 	"/>
</g>
</svg>